<?xml version="1.0" encoding="utf-8"?>
<!-- Generator: Adobe Illustrator 12.0.0, SVG Export Plug-In . SVG Version: 6.00 Build 51448)  -->
<!DOCTYPE svg PUBLIC "-//W3C//DTD SVG 1.1//EN" "http://www.w3.org/Graphics/SVG/1.1/DTD/svg11.dtd" [
	<!ENTITY ns_svg "http://www.w3.org/2000/svg">
	<!ENTITY ns_xlink "http://www.w3.org/1999/xlink">
]>
<svg  version="1.1" id="レイヤー_1" xmlns="&ns_svg;" xmlns:xlink="&ns_xlink;" width="72" height="72" viewBox="0 0 72 72"
	 overflow="visible" enable-background="new 0 0 72 72" xml:space="preserve">
<title>Orcid logo</title>
<g>
	<g>
		<path fill="#221815" d="M36,0C16.116,0,0,16.116,0,36c0,19.885,16.116,36,36,36c19.885,0,36-16.115,36-36C72,16.116,55.885,0,36,0
			z M23.906,52.035h-4.342v-29.98h4.342V52.035z M21.735,18.64c-1.579,0-2.848-1.288-2.848-2.828c0-1.567,1.269-2.827,2.848-2.827
			s2.848,1.288,2.848,2.827C24.583,17.352,23.314,18.64,21.735,18.64z M42.062,52.062H30.278V22.055h11.729
			c11.165,0,16.071,7.922,16.071,15.003C58.078,44.758,52.016,52.062,42.062,52.062z M41.303,25.946H34.62v22.226h6.907
			c9.84,0,12.096-7.418,12.096-11.113C53.623,31.041,49.76,25.946,41.303,25.946z"/>
	</g>
</g>
</svg>
