<?xml version="1.0" encoding="utf-8"?>
<!-- Generator: Adobe Illustrator 12.0.0, SVG Export Plug-In . SVG Version: 6.00 Build 51448)  -->
<!DOCTYPE svg PUBLIC "-//W3C//DTD SVG 1.1//EN" "http://www.w3.org/Graphics/SVG/1.1/DTD/svg11.dtd" [
	<!ENTITY ns_svg "http://www.w3.org/2000/svg">
	<!ENTITY ns_xlink "http://www.w3.org/1999/xlink">
]>
<svg  version="1.1" id="レイヤー_1" xmlns="&ns_svg;" xmlns:xlink="&ns_xlink;" width="72" height="72" viewBox="0 0 72 72"
	 overflow="visible" enable-background="new 0 0 72 72" xml:space="preserve">
<title>Orcid logo</title>
<g>
	<g>
		<path fill="#221815" d="M61.755,26.774L20.425,2.913c-8.79-5.074-15.98-0.923-15.98,9.226v47.723c0,10.148,7.19,14.3,15.98,9.227
			l41.33-23.862C70.545,40.152,70.545,31.849,61.755,26.774z M22.086,33.333c-0.713-0.297-1.278-0.446-1.694-0.446
			c-0.792,0-1.407,0.327-1.842,0.981c-0.624,0.923-0.936,2.647-0.936,5.177v5.295h-6.078V28.543h5.662v2.588
			c0.544-1.122,1.107-1.893,1.686-2.315c0.58-0.422,1.295-0.633,2.147-0.633c0.891,0,1.867,0.278,2.927,0.835L22.086,33.333z
			 M53.338,44.34h-6.062v-8.997c0-0.714-0.138-1.244-0.414-1.591c-0.405-0.545-0.909-0.818-1.512-0.818
			c-0.711,0-1.284,0.258-1.719,0.773s-0.652,1.343-0.652,2.483v8.149h-6.062v-8.701c0-0.693-0.039-1.165-0.119-1.413
			c-0.129-0.396-0.353-0.716-0.671-0.959c-0.318-0.243-0.691-0.364-1.119-0.364c-0.696,0-1.269,0.263-1.716,0.788
			c-0.448,0.526-0.671,1.389-0.671,2.588v8.062h-6.062V28.543h5.646v2.305c0.813-0.962,1.635-1.647,2.463-2.054
			c0.829-0.407,1.828-0.61,2.999-0.61c1.261,0,2.258,0.224,2.992,0.67s1.334,1.111,1.801,1.995c0.949-1.032,1.815-1.734,2.598-2.106
			c0.781-0.372,1.746-0.559,2.895-0.559c1.691,0,3.013,0.503,3.963,1.51c0.949,1.007,1.424,2.582,1.424,4.724V44.34z"/>
	</g>
</g>
</svg>
