<?xml version="1.0" encoding="utf-8"?>
<!-- Generator: Adobe Illustrator 12.0.0, SVG Export Plug-In . SVG Version: 6.00 Build 51448)  -->
<!DOCTYPE svg PUBLIC "-//W3C//DTD SVG 1.1//EN" "http://www.w3.org/Graphics/SVG/1.1/DTD/svg11.dtd" [
	<!ENTITY ns_svg "http://www.w3.org/2000/svg">
	<!ENTITY ns_xlink "http://www.w3.org/1999/xlink">
]>
<svg  version="1.1" id="レイヤー_1" xmlns="&ns_svg;" xmlns:xlink="&ns_xlink;" width="72" height="72" viewBox="0 0 72 72"
	 overflow="visible" enable-background="new 0 0 72 72" xml:space="preserve">
<g id="レイヤー_2" display="none">
	<g display="inline">
		<g>
			<path fill="#221815" d="M36,0C16.116,0,0,16.116,0,36c0,19.885,16.116,36,36,36c19.885,0,36-16.115,36-36
				C72,16.116,55.885,0,36,0z M23.906,52.035h-4.342v-29.98h4.342V52.035z M21.735,18.64c-1.579,0-2.848-1.288-2.848-2.828
				c0-1.567,1.269-2.827,2.848-2.827s2.848,1.288,2.848,2.827C24.583,17.352,23.314,18.64,21.735,18.64z M42.062,52.062H30.278
				V22.055h11.729c11.165,0,16.071,7.922,16.071,15.003C58.078,44.758,52.016,52.062,42.062,52.062z M41.303,25.946H34.62v22.226
				h6.907c9.84,0,12.096-7.418,12.096-11.113C53.623,31.041,49.76,25.946,41.303,25.946z"/>
		</g>
	</g>
</g>
<g>
	<g>
		<path fill="#221815" d="M38.815,21.533c-2.316,0-3.986,0.862-4.578,1.508c-0.485,0.593-0.646,1.4-0.646,3.178v9.264
			c0,1.724,0.539,2.369,1.616,3.231c1.077,0.808,2.747,1.185,3.877,1.185c4.417,0,7.002-4.093,7.002-9.694
			C46.086,25.896,43.662,21.533,38.815,21.533z M25.5-0.25v12.232c0,1.247-1.021,2.268-2.268,2.268H11.625V72H62.25V-0.25H25.5z
			 M37.307,41.676c-0.969,0-2.477-0.107-2.962-0.215c-0.484,0.107-0.754,0.377-0.754,1.508v5.655c0,3.823,0.108,4.309,2.047,4.577
			l2.101,0.27c0.377,0.27,0.27,1.186-0.107,1.347c-2.586-0.107-4.147-0.161-6.033-0.161c-1.939,0-3.555,0.054-5.063,0.161
			c-0.377-0.161-0.484-1.077-0.107-1.347l1.131-0.161c1.993-0.27,2.047-0.808,2.047-4.686v-23.16c0-2.101,0-2.37-1.454-3.339
			l-0.485-0.323c-0.215-0.215-0.215-0.808,0.054-0.969c1.4-0.592,3.932-1.885,5.332-2.908c0.323,0,0.539,0.107,0.646,0.377
			c-0.108,0.969-0.215,1.777-0.215,2.478c0,0.377,0.107,0.7,0.484,0.7c0.7-0.323,4.093-2.532,7.54-2.532
			c5.439,0,8.941,4.417,8.941,9.856C50.449,36.29,44.955,41.676,37.307,41.676z M23.5,10.833V-0.25l-11.875,12.5h10.458
			C22.862,12.25,23.5,11.612,23.5,10.833z"/>
	</g>
</g>
</svg>
